<svg width="486" height="583" viewBox="0 0 486 583" fill="none" xmlns="http://www.w3.org/2000/svg">
<path d="M145.796 97.1647C118.954 97.1647 97.1976 75.4158 97.1976 48.5824C97.1976 21.7489 118.954 0 145.796 0C172.639 0 194.395 21.7489 194.395 48.5824C194.395 75.4158 172.639 97.1647 145.796 97.1647Z" fill="#DC5354"/>
<path d="M145.797 70.273C133.816 70.273 124.099 60.5589 124.099 48.5824C124.099 36.6059 133.816 26.8917 145.797 26.8917C157.777 26.8917 167.495 36.6059 167.495 48.5824C167.495 60.5589 157.789 70.273 145.797 70.273Z" fill="#FBD15B"/>
<path d="M291.593 0H194.395V97.1647H291.593V0Z" fill="#0A335B"/>
<path d="M97.1977 97.1647H0C0 43.4979 43.5126 0 97.1977 0V97.1647Z" fill="#E9E5D9"/>
<path d="M291.605 97.1647V0H388.802C388.802 53.6668 345.278 97.1647 291.605 97.1647Z" fill="#DC5354"/>
<path d="M486 97.1647C432.315 97.1647 388.802 53.6668 388.802 0H486V97.1647Z" fill="#E9E5D9"/>
<path d="M97.1977 194.329C43.5126 194.329 0 150.832 0 97.1647H97.1977V194.329Z" fill="#DC5354"/>
<path d="M97.1977 152.418C66.6689 152.418 41.9261 127.683 41.9261 97.1647H97.1977V152.418Z" fill="#FBD15B"/>
<path d="M194.395 97.1647H97.1976V194.329H194.395V97.1647Z" fill="#0A335B"/>
<path d="M166.596 124.954H124.997V166.54H166.596V124.954Z" fill="#E9E5D9"/>
<path d="M291.593 97.1647H194.395V194.329H291.593V97.1647Z" fill="#E9E5D9"/>
<path d="M291.605 194.329H194.407C194.407 140.663 237.92 97.1647 291.605 97.1647V194.329Z" fill="#DC5354"/>
<path d="M486 194.329H388.802C388.802 140.663 432.315 97.1647 486 97.1647V194.329Z" fill="black"/>
<path d="M388.802 194.329H291.605V97.1647C345.278 97.1647 388.802 140.674 388.802 194.329Z" fill="#FBD15B"/>
<path d="M194.395 194.329H97.1976V291.494H194.395V194.329Z" fill="#FBD15B"/>
<path d="M291.593 194.329H194.395V291.494H291.593V194.329Z" fill="#F9FBFC"/>
<path d="M48.5988 291.506C21.7563 291.506 0 269.745 0 242.912C0 216.078 21.7563 194.329 48.5988 194.329C75.4414 194.329 97.1977 216.078 97.1977 242.912C97.1977 269.745 75.4414 291.506 48.5988 291.506Z" fill="#0A335B"/>
<path d="M48.5989 264.591C36.6184 264.591 26.9126 254.888 26.9126 242.912C26.9126 230.935 36.6184 221.233 48.5989 221.233C60.5795 221.233 70.2853 230.935 70.2853 242.912C70.2853 254.888 60.5795 264.591 48.5989 264.591Z" fill="#DC5354"/>
<path d="M388.802 194.329H291.605V291.494H388.802V194.329Z" fill="#F9FBFC"/>
<path d="M291.605 291.506C237.92 291.506 194.407 248.008 194.407 194.341H291.605V291.506Z" fill="#0A335B"/>
<path d="M291.605 291.506V194.341H388.802C388.802 247.996 345.278 291.506 291.605 291.506Z" fill="#DC5354"/>
<path d="M291.605 194.329H243.472C243.472 167.764 265.019 146.214 291.605 146.214V194.329Z" fill="#F9FBFC"/>
<path d="M339.725 194.329H291.593V146.214C318.179 146.225 339.725 167.764 339.725 194.329Z" fill="#DC5354"/>
<path d="M291.605 242.445C265.03 242.445 243.472 220.906 243.472 194.329H291.605V242.445Z" fill="#FBD15B"/>
<path d="M291.605 242.445V194.329H339.737C339.725 220.906 318.179 242.445 291.605 242.445Z" fill="#0A335B"/>
<path d="M486 291.506H388.802V194.341C442.476 194.329 486 237.839 486 291.506Z" fill="#0A335B"/>
<path d="M97.1977 388.671C43.5126 388.671 0 345.161 0 291.506H97.1977V388.671Z" fill="#E9E5D9"/>
<path d="M194.395 291.506H97.1976V388.671H194.395V291.506Z" fill="#0A335B"/>
<path d="M194.395 388.671H97.1976L194.395 291.506V388.671Z" fill="#0A335B"/>
<path d="M291.605 388.671H194.407V291.506C248.08 291.506 291.605 335.004 291.605 388.671Z" fill="#DC5354"/>
<path d="M486 388.671H388.802V291.506C442.476 291.506 486 335.004 486 388.671Z" fill="#FBD15B"/>
<path d="M388.802 388.671H291.605C291.605 335.004 335.117 291.506 388.802 291.506V388.671Z" fill="#0A335B"/>
<path d="M388.802 388.671H291.605C291.605 335.004 335.117 291.506 388.802 291.506V388.671Z" fill="#0A335B"/>
<path d="M449.848 388.671H388.802V327.645C422.516 327.634 449.848 354.957 449.848 388.671Z" fill="#E9E5D9"/>
<path d="M388.802 388.671H327.756C327.756 354.968 355.089 327.645 388.802 327.645V388.671Z" fill="#DC5354"/>
<path d="M97.1977 485.835C43.5126 485.835 0 529.333 0 583H97.1977V485.835Z" fill="#DC5354"/>
<path d="M97.1976 485.835V583H194.395C194.395 529.333 150.883 485.835 97.1976 485.835Z" fill="#FBD15B"/>
<path d="M97.1976 526.849C66.1788 526.849 41.0278 551.992 41.0278 583H97.1976V526.849Z" fill="#E9E5D9"/>
<path d="M97.1976 526.849V583H153.367C153.367 551.992 128.216 526.849 97.1976 526.849Z" fill="#F9FBFC"/>
<path d="M194.395 485.835C194.395 539.502 237.908 583 291.593 583C291.605 529.333 248.08 485.835 194.395 485.835Z" fill="#0A335B"/>
<path d="M486 485.835H388.802V583H486V485.835Z" fill="#0A335B"/>
<path d="M388.802 485.835C335.117 485.835 291.605 529.333 291.605 583H388.802V485.835Z" fill="#DC5354"/>
<path d="M97.1976 388.671C97.1976 442.337 140.71 485.835 194.395 485.835C194.395 432.168 150.883 388.671 97.1976 388.671Z" fill="#DC5354"/>
<path d="M291.605 388.671C237.92 388.671 194.407 432.168 194.407 485.835C248.08 485.835 291.605 442.326 291.605 388.671Z" fill="#FBD15B"/>
<path d="M388.802 388.671H291.604V485.835H388.802V388.671Z" fill="#F9FBFC"/>
<path d="M364.503 388.671C351.088 388.671 340.204 399.551 340.204 412.962C340.204 426.373 351.088 437.253 364.503 437.253C377.918 437.253 388.802 426.373 388.802 412.962C388.802 399.539 377.918 388.671 364.503 388.671Z" fill="#FBD15B"/>
<path d="M364.503 407.213C361.33 407.213 358.752 409.79 358.752 412.962C358.752 416.134 361.33 418.711 364.503 418.711C367.676 418.711 370.254 416.134 370.254 412.962C370.254 409.778 367.676 407.213 364.503 407.213Z" fill="#F9FBFC"/>
<path d="M315.904 388.671C302.488 388.671 291.604 399.551 291.604 412.962C291.604 426.373 302.488 437.253 315.904 437.253C329.319 437.253 340.203 426.373 340.203 412.962C340.203 399.539 329.319 388.671 315.904 388.671Z" fill="#E9E5D9"/>
<path d="M315.904 407.213C312.731 407.213 310.153 409.79 310.153 412.962C310.153 416.134 312.731 418.711 315.904 418.711C319.077 418.711 321.655 416.134 321.655 412.962C321.655 409.778 319.077 407.213 315.904 407.213Z" fill="#0A335B"/>
<path d="M364.503 437.253C351.088 437.253 340.204 448.133 340.204 461.544C340.204 474.955 351.088 485.835 364.503 485.835C377.918 485.835 388.802 474.955 388.802 461.544C388.802 448.122 377.918 437.253 364.503 437.253Z" fill="#0A335B"/>
<path d="M364.503 455.795C361.33 455.795 358.752 458.372 358.752 461.544C358.752 464.716 361.33 467.293 364.503 467.293C367.676 467.293 370.254 464.716 370.254 461.544C370.254 458.372 367.676 455.795 364.503 455.795Z" fill="#FBD15B"/>
<path d="M315.904 437.253C302.488 437.253 291.604 448.133 291.604 461.544C291.604 474.955 302.488 485.835 315.904 485.835C329.319 485.835 340.203 474.955 340.203 461.544C340.203 448.122 329.319 437.253 315.904 437.253Z" fill="#DC5354"/>
<path d="M315.904 455.795C312.731 455.795 310.153 458.372 310.153 461.544C310.153 464.716 312.731 467.293 315.904 467.293C319.077 467.293 321.655 464.716 321.655 461.544C321.655 458.372 319.077 455.795 315.904 455.795Z" fill="#E9E5D9"/>
<path d="M486 388.671H388.802V485.835H486V388.671Z" fill="#DC5354"/>
<path d="M458.096 416.554H416.695V457.941H458.096V416.554Z" fill="#0A335B"/>
</svg>
